<svg width="108" height="109" viewBox="0 0 108 109" fill="none" xmlns="http://www.w3.org/2000/svg">
<path d="M54.0503 108.061C83.7567 108.061 107.839 83.8709 107.839 54.0306C107.839 24.1903 83.7567 0 54.0503 0C24.3439 0 0.262085 24.1903 0.262085 54.0306C0.262085 83.8709 24.3439 108.061 54.0503 108.061Z" fill="#E9FFF1"/>
<path d="M76.8936 61.6181C74.7615 59.4153 72.5077 57.6408 70.1929 56.2334C67.8781 54.8261 65.3806 53.7858 62.7612 53.1739C60.1419 52.5009 57.2179 52.1949 54.0503 52.1949C50.8827 52.1949 48.0197 52.5009 45.3395 53.1739C42.7201 53.847 40.2226 54.8873 37.9078 56.2334C35.593 57.6408 33.3391 59.4153 31.2071 61.6181C29.0751 63.821 26.943 66.3909 24.8719 69.4504L15.8564 63.4538C20.3033 55.132 25.6029 48.9518 31.8163 44.7909C38.0905 40.63 45.4613 38.5496 54.0503 38.5496C62.6394 38.5496 70.071 40.63 76.2235 44.7909C82.3759 48.9518 87.7365 55.132 92.1833 63.4538L83.1678 69.4504C81.0967 66.3909 79.0256 63.821 76.8936 61.6181Z" stroke="black" stroke-width="2.71" stroke-miterlimit="10"/>
</svg>
