<svg width="108" height="109" viewBox="0 0 108 109" fill="none" xmlns="http://www.w3.org/2000/svg">
<path d="M53.7882 108.061C83.4946 108.061 107.576 83.8709 107.576 54.0306C107.576 24.1903 83.4946 0 53.7882 0C24.0818 0 0 24.1903 0 54.0306C0 83.8709 24.0818 108.061 53.7882 108.061Z" fill="white"/>
<path d="M58.7833 37.9989C58.7833 41.4255 59.3924 43.8731 60.6716 45.3416C61.9509 46.8102 64.2656 47.5445 67.6769 47.5445C68.0424 47.5445 68.4688 47.5445 69.017 47.4833C69.5653 47.4833 70.1135 47.4221 70.7227 47.4221C71.3318 47.4221 71.8801 47.3609 72.3674 47.3609C72.9156 47.3609 73.342 47.2997 73.6466 47.2997C75.8396 47.2997 77.8498 47.6057 79.6772 48.2788C81.5047 48.8907 83.0885 49.9921 84.5504 51.5218C85.9515 53.0516 87.1698 55.132 88.2663 57.7632C89.3018 60.3943 90.1546 63.6986 90.8856 67.6759L82.1138 70.0011C81.5047 67.6759 80.8346 65.8402 80.1645 64.4329C79.4945 63.0255 78.7635 61.9853 77.9716 61.1898C77.1797 60.4555 76.266 59.966 75.2913 59.7213C74.3167 59.4765 73.1593 59.3541 71.8191 59.3541C70.9663 59.3541 69.8699 59.4153 68.6515 59.4765C67.4332 59.5377 66.3368 59.5989 65.423 59.5989C62.2554 59.5989 59.7579 58.8034 57.9914 57.2737C56.2248 55.7439 54.8238 53.4799 53.8491 50.5428C52.8745 53.4799 51.4734 55.7439 49.7069 57.2737C47.9403 58.8034 45.4428 59.5989 42.2752 59.5989C41.3615 59.5989 40.265 59.5377 39.0467 59.4765C37.8284 59.4153 36.7319 59.3541 35.8791 59.3541C34.539 59.3541 33.3816 59.4765 32.4069 59.7213C31.4323 59.966 30.5186 60.4555 29.7267 61.1898C28.9348 61.9241 28.2038 63.0255 27.5337 64.4329C26.8636 65.8402 26.1936 67.6759 25.5844 70.0011L16.8126 67.6759C17.4827 63.6374 18.3964 60.3332 19.432 57.7632C20.4675 55.132 21.6858 53.0516 23.1478 51.5218C24.5489 49.9921 26.1936 48.8907 28.021 48.2788C29.8485 47.6669 31.8587 47.2997 34.0517 47.2997C34.4171 47.2997 34.8436 47.2997 35.3309 47.3609C35.8791 47.3609 36.4273 47.4221 36.9756 47.4221C37.5847 47.4221 38.133 47.4833 38.6812 47.4833C39.2295 47.4833 39.6559 47.5445 40.0214 47.5445C43.4326 47.5445 45.7474 46.8102 47.0266 45.3416C48.3058 43.8731 48.915 41.4255 48.915 37.9989H58.7833V37.9989Z" stroke="black" stroke-width="2.71"/>
</svg>
