<svg width="437" height="77" viewBox="0 0 437 77" fill="none" xmlns="http://www.w3.org/2000/svg">
<path d="M423.96 8.73199H13.1853V68.1959H423.96V8.73199Z" fill="white"/>
<path d="M41.7295 31.6804H45.2069L47.0181 41.2784C47.3079 42.9382 47.5253 44.5258 47.7426 46.1856H47.8875C48.1048 44.5258 48.4671 42.9382 48.8293 41.2784L50.7129 33.0516H53.9006L55.7118 41.2062C56.074 42.866 56.5087 44.4536 56.726 46.1134H56.8709C57.1607 44.4536 57.3056 42.866 57.5954 41.2062L59.4066 31.6804H62.6667L59.1892 49.0722H54.7699L53.0312 41.4227C52.7414 40.1237 52.5241 38.3918 52.2343 36.299H52.0894C51.8721 38.3196 51.5823 39.9794 51.2925 41.4227L49.6262 49.0722H45.2794L41.7295 31.6804Z" fill="black"/>
<path d="M65.2023 40.3402C65.2023 34.6392 69.4766 31.2474 74.1857 31.2474C79.3294 31.2474 82.2273 34.6392 82.2273 39.4742C82.2273 40.1959 82.1549 40.9175 82.0824 41.4227H67.6655V38.8248H79.8366L79.0396 39.6907C79.0396 35.9382 77.2285 34.0619 74.2581 34.0619C71.2154 34.0619 68.6797 36.299 68.6797 40.4124C68.6797 44.6701 71.3603 46.7629 75.1275 46.7629C77.0836 46.7629 78.6774 46.1856 80.1988 45.2474L81.4304 47.4846C79.6192 48.6392 77.3009 49.5773 74.6204 49.5773C69.4042 49.5052 65.2023 46.1134 65.2023 40.3402Z" fill="black"/>
<path d="M106.497 47.1237H106.352L105.99 49.0722H103.165V23.8145H106.714V30.5258L106.57 33.7011H106.714C108.236 32.1856 110.337 31.2474 112.293 31.2474C116.929 31.2474 119.465 34.7114 119.465 40.1237C119.465 46.1134 115.77 49.5773 111.641 49.5773C110.047 49.5052 108.091 48.6392 106.497 47.1237ZM115.915 40.1237C115.915 36.4433 114.611 34.2062 111.424 34.2062C109.975 34.2062 108.381 34.9279 106.787 36.5155V44.7423C108.236 46.0413 109.902 46.5464 111.061 46.5464C113.814 46.5464 115.915 44.2371 115.915 40.1237Z" fill="black"/>
<path d="M126.492 31.6804H129.463L129.752 35.7217H129.825C131.636 32.9072 134.317 31.2474 137.432 31.2474C138.808 31.2474 139.823 31.4639 140.837 31.9691L140.04 35C138.881 34.6392 138.156 34.4227 136.852 34.4227C134.317 34.4227 131.926 35.7217 129.97 39.1856V49.0722H126.42V31.6804H126.492Z" fill="black"/>
<path d="M145.763 44.4536C145.763 40.5567 149.313 38.6083 158.152 37.9588C158.007 35.7938 156.848 34.0619 153.732 34.0619C151.632 34.0619 149.531 35 147.792 36.0103L146.415 33.6289C148.371 32.4021 151.269 31.1753 154.312 31.1753C159.166 31.1753 161.629 33.9176 161.629 38.5361V49.0722H158.659L158.369 46.8351H158.224C156.341 48.2784 153.95 49.5052 151.559 49.5052C148.299 49.5052 145.763 47.5567 145.763 44.4536ZM158.152 44.3093V40.2681C151.269 40.7732 149.241 42.1444 149.241 44.2371C149.241 45.9691 150.835 46.6908 152.718 46.6908C154.529 46.6908 156.341 45.8248 158.152 44.3093Z" fill="black"/>
<path d="M167.642 31.6804H170.54L170.83 34.4227H170.975C172.714 32.6186 174.742 31.2474 177.423 31.2474C181.48 31.2474 183.363 33.7732 183.363 38.3196V49.1443H179.813V38.7526C179.813 35.7217 178.799 34.2784 176.191 34.2784C174.307 34.2784 173.003 35.2165 171.192 37.0206V49.0722H167.642V31.6804Z" fill="black"/>
<path d="M188 40.4124C188 34.7113 191.767 31.2474 195.824 31.2474C197.853 31.2474 199.374 32.0412 200.823 33.4124H200.895L200.751 30.3814V23.8866H204.3V49.1443H201.403L201.113 46.9794H200.968C199.591 48.4227 197.563 49.5773 195.462 49.5773C191.043 49.5052 188 46.1856 188 40.4124ZM200.751 44.2371V36.0103C199.302 34.7113 197.998 34.2062 196.621 34.2062C193.868 34.2062 191.695 36.5876 191.695 40.3402C191.695 44.3093 193.433 46.5464 196.404 46.5464C197.925 46.5464 199.374 45.8247 200.751 44.2371Z" fill="black"/>
<path d="M210.603 31.6804H213.501L213.791 33.7732H213.936C215.53 32.3299 217.703 31.2474 219.732 31.2474C224.368 31.2474 226.904 34.7114 226.904 40.1237C226.904 46.0413 223.209 49.5052 219.08 49.5052C217.486 49.5052 215.602 48.7114 214.081 47.3402H214.008L214.153 50.5155V56.2165H210.603V31.6804ZM223.209 40.1237C223.209 36.4433 221.905 34.2062 218.717 34.2062C217.268 34.2062 215.675 34.9278 214.081 36.5155V44.7423C215.53 46.0413 217.196 46.5464 218.283 46.5464C221.108 46.5464 223.209 44.2371 223.209 40.1237Z" fill="black"/>
<path d="M230.961 40.4124C230.961 34.567 235.09 31.2474 239.655 31.2474C244.291 31.2474 248.348 34.567 248.348 40.4124C248.348 46.1856 244.219 49.5052 239.655 49.5052C235.018 49.5052 230.961 46.1856 230.961 40.4124ZM244.726 40.4124C244.726 36.6598 242.77 34.134 239.655 34.134C236.539 34.134 234.583 36.6598 234.583 40.4124C234.583 44.165 236.539 46.6186 239.655 46.6186C242.77 46.6186 244.726 44.0928 244.726 40.4124Z" fill="black"/>
<path d="M250.667 31.6804H254.144L255.955 41.2784C256.245 42.9382 256.462 44.5258 256.68 46.1856H256.825C257.042 44.5258 257.404 42.9382 257.766 41.2784L259.65 33.1237H262.838L264.649 41.2784C265.011 42.9382 265.446 44.5258 265.663 46.1856H265.808C266.098 44.5258 266.243 42.9382 266.532 41.2784L268.344 31.6804H271.604L268.126 49.0722H263.707L261.968 41.4227C261.678 40.1237 261.461 38.3918 261.171 36.299H261.026C260.809 38.3196 260.519 39.9794 260.23 41.4227L258.563 49.0722H254.216L250.667 31.6804Z" fill="black"/>
<path d="M274.139 40.3402C274.139 34.6392 278.414 31.2474 283.123 31.2474C288.266 31.2474 291.164 34.6392 291.164 39.4742C291.164 40.1959 291.092 40.9175 291.019 41.4227H276.602V38.8248H288.774L287.977 39.6907C287.977 35.9382 286.165 34.0619 283.195 34.0619C280.152 34.0619 277.617 36.299 277.617 40.4124C277.617 44.6701 280.297 46.7629 284.065 46.7629C286.021 46.7629 287.614 46.1856 289.136 45.2474L290.367 47.4846C288.556 48.6392 286.238 49.5773 283.557 49.5773C278.341 49.5052 274.139 46.1134 274.139 40.3402Z" fill="black"/>
<path d="M298.264 31.6804H301.234L301.524 35.7217H301.597C303.408 32.9072 306.088 31.2474 309.204 31.2474C310.58 31.2474 311.594 31.4639 312.609 31.9691L311.812 35C310.653 34.6392 309.928 34.4227 308.624 34.4227C306.088 34.4227 303.698 35.7217 301.742 39.1856V49.0722H298.192V31.6804H298.264Z" fill="black"/>
<path d="M333.618 56L334.343 53.2577C334.777 53.4021 335.357 53.4742 335.864 53.4742C338.182 53.4742 339.559 52.1031 340.356 50.1546L340.79 49L332.821 31.6804H336.371L340.283 40.701C340.935 42.2887 341.66 44.0928 342.312 45.8247H342.457C343.036 44.165 343.688 42.3608 344.268 40.701L347.745 31.6804H351.15L343.616 50.2268C342.239 53.9072 340.138 56.433 336.009 56.433C335.14 56.3608 334.27 56.2165 333.618 56Z" fill="black"/>
<path d="M354.7 40.4124C354.7 34.567 358.83 31.2474 363.394 31.2474C368.031 31.2474 372.088 34.567 372.088 40.4124C372.088 46.1856 367.958 49.5052 363.394 49.5052C358.83 49.5052 354.7 46.1856 354.7 40.4124ZM368.465 40.4124C368.465 36.6598 366.509 34.134 363.394 34.134C360.279 34.134 358.323 36.6598 358.323 40.4124C358.323 44.165 360.279 46.6186 363.394 46.6186C366.509 46.6186 368.465 44.0928 368.465 40.4124Z" fill="black"/>
<path d="M376.797 42.433V31.6083H380.347V41.9279C380.347 44.9588 381.361 46.4021 383.969 46.4021C385.78 46.4021 387.084 45.6083 388.895 43.5155V31.6804H392.445V49.0722H389.475L389.185 46.1856H389.04C387.301 48.1341 385.345 49.5052 382.665 49.5052C378.608 49.5052 376.797 46.9794 376.797 42.433Z" fill="black"/>
<path d="M0 33.268C3.5499 33.268 6.08554 32.6186 7.60693 31.3196C9.12831 30.0206 9.92523 27.567 9.92523 24.0309C9.92523 23.6701 9.92523 23.2371 9.85279 22.6598C9.85279 22.0825 9.78034 21.5052 9.78034 20.9278C9.78034 20.3505 9.70789 19.7732 9.70789 19.1959C9.70789 18.6907 9.63544 18.1856 9.63544 17.8247C9.63544 15.5155 9.99768 13.4948 10.6497 11.5464C11.3017 9.6701 12.4609 8.01031 14.0547 6.49485C15.6485 5.05155 17.8219 3.75258 20.5025 2.6701C23.183 1.58763 26.6605 0.72165 30.79 0L33.2532 9.09278C30.8624 9.74227 28.9063 10.4639 27.4574 11.1134C26.0085 11.8351 24.9217 12.5567 24.1248 13.4227C23.3279 14.2887 22.8208 15.1546 22.6034 16.2371C22.3861 17.2474 22.2412 18.4742 22.2412 19.8454C22.2412 20.7113 22.3137 21.866 22.3861 23.0928C22.4586 24.3918 22.531 25.4742 22.531 26.4845C22.531 29.8041 21.7341 32.3299 20.1403 34.2062C18.5464 36.0825 16.2281 37.5258 13.1129 38.5361C16.1557 39.5464 18.5464 40.9897 20.1403 42.866C21.6616 44.6701 22.4586 47.268 22.4586 50.5155C22.4586 51.4536 22.3861 52.6082 22.3137 53.9072C22.2412 55.2062 22.1688 56.2887 22.1688 57.1546C22.1688 58.5258 22.3137 59.7526 22.531 60.7629C22.7483 61.7732 23.2555 62.7113 24.0524 63.5773C24.8493 64.4433 25.936 65.165 27.3849 65.8866C28.8339 66.6083 30.79 67.2577 33.1807 67.9072L30.7175 77C26.588 76.2784 23.1106 75.4124 20.43 74.3299C17.7495 73.2474 15.5761 71.9485 13.9823 70.5052C12.3884 69.0619 11.2293 67.3299 10.5773 65.4536C9.92523 63.5773 9.563 61.4845 9.563 59.1753C9.563 58.8144 9.563 58.3814 9.63544 57.8041C9.63544 57.299 9.70789 56.7216 9.70789 56.0722C9.70789 55.4948 9.78034 54.9175 9.78034 54.3402C9.78034 53.7629 9.85279 53.3299 9.85279 52.9691C9.85279 49.433 9.05587 46.9794 7.53448 45.6804C6.08554 44.3814 3.5499 43.732 0 43.732V33.268Z" fill="black"/>
<path d="M437 43.732C433.45 43.732 430.914 44.3814 429.393 45.6804C427.872 46.9794 427.075 49.433 427.075 52.9691C427.075 53.3299 427.075 53.7629 427.147 54.3402C427.147 54.9175 427.22 55.4948 427.22 56.0722C427.22 56.6495 427.292 57.2268 427.292 57.8041C427.292 58.3093 427.365 58.8144 427.365 59.1753C427.365 61.4845 427.002 63.5052 426.35 65.4536C425.698 67.3299 424.539 68.9897 422.945 70.5052C421.351 71.9485 419.178 73.2474 416.498 74.3299C413.817 75.4124 410.34 76.2784 406.21 77L403.747 67.9072C406.138 67.2577 408.094 66.5361 409.543 65.8866C410.992 65.165 412.078 64.4433 412.875 63.5773C413.672 62.7113 414.179 61.8454 414.397 60.7629C414.614 59.7526 414.759 58.5258 414.759 57.1546C414.759 56.2887 414.686 55.134 414.614 53.9072C414.541 52.6082 414.469 51.5258 414.469 50.5155C414.469 47.1959 415.266 44.6701 416.86 42.7938C418.454 40.9175 420.772 39.4742 423.887 38.4639C420.844 37.4536 418.454 36.0103 416.86 34.134C415.266 32.2577 414.469 29.732 414.469 26.4124C414.469 25.4742 414.541 24.3196 414.614 23.0206C414.686 21.7217 414.759 20.6392 414.759 19.7732C414.759 18.4021 414.614 17.1753 414.397 16.1649C414.179 15.1546 413.672 14.2165 412.875 13.3505C412.078 12.4845 410.992 11.7629 409.543 11.0412C408.094 10.3196 406.138 9.6701 403.747 9.02062L406.21 0C410.34 0.72165 413.817 1.58763 416.498 2.6701C419.178 3.75258 421.351 5.05155 422.945 6.49485C424.539 7.93814 425.698 9.6701 426.35 11.5464C427.002 13.4227 427.365 15.5155 427.365 17.8247C427.365 18.1856 427.365 18.6186 427.292 19.1959C427.292 19.701 427.22 20.2784 427.22 20.9278C427.22 21.5052 427.147 22.0825 427.147 22.6598C427.147 23.2371 427.075 23.6701 427.075 24.0309C427.075 27.567 427.872 30.0206 429.393 31.3196C430.914 32.6186 433.45 33.268 437 33.268V43.732Z" fill="black"/>
</svg>
