<svg width="51" height="51" viewBox="0 0 51 51" fill="none" xmlns="http://www.w3.org/2000/svg">
<path d="M25.0017 4.50576C31.6809 4.50576 32.465 4.53553 35.1049 4.65462C37.5464 4.7638 38.8663 5.1707 39.7496 5.51806C40.9207 5.97459 41.7544 6.51052 42.6278 7.38388C43.5011 8.25725 44.047 9.09091 44.4936 10.262C44.831 11.1453 45.2478 12.4653 45.357 14.9067C45.4761 17.5466 45.5059 18.3307 45.5059 25.0099C45.5059 31.6892 45.4761 32.4732 45.357 35.1131C45.2478 37.5546 44.8409 38.8746 44.4936 39.7578C44.037 40.9289 43.5011 41.7626 42.6278 42.636C41.7544 43.5093 40.9207 44.0552 39.7496 44.5018C38.8663 44.8392 37.5464 45.2561 35.1049 45.3652C32.465 45.4843 31.6809 45.5141 25.0017 45.5141C18.3225 45.5141 17.5384 45.4843 14.8985 45.3652C12.457 45.2561 11.1371 44.8491 10.2538 44.5018C9.08269 44.0453 8.24903 43.5093 7.37567 42.636C6.5023 41.7626 5.95645 40.9289 5.50985 39.7578C5.17241 38.8746 4.75558 37.5546 4.64641 35.1131C4.52731 32.4732 4.49754 31.6892 4.49754 25.0099C4.49754 18.3307 4.52731 17.5466 4.64641 14.9067C4.75558 12.4653 5.16249 11.1453 5.50985 10.262C5.96638 9.09091 6.5023 8.25725 7.37567 7.38388C8.24903 6.51052 9.08269 5.96467 10.2538 5.51806C11.1371 5.18063 12.457 4.7638 14.8985 4.65462C17.5384 4.52561 18.3324 4.50576 25.0017 4.50576ZM25.0017 0C18.2133 0 17.3598 0.0297737 14.6901 0.148869C12.0303 0.267963 10.2141 0.69472 8.62616 1.31004C6.97868 1.94522 5.58924 2.80865 4.1998 4.19809C2.81036 5.58753 1.95685 6.9869 1.31175 8.62445C0.696429 10.2124 0.269672 12.0286 0.150578 14.6983C0.0314827 17.3581 0.00170898 18.2116 0.00170898 25C0.00170898 31.7884 0.0314827 32.6419 0.150578 35.3116C0.269672 37.9714 0.696429 39.7876 1.31175 41.3855C1.94693 43.033 2.81036 44.4224 4.1998 45.8118C5.58924 47.2013 6.98861 48.0548 8.62616 48.6999C10.2141 49.3152 12.0303 49.742 14.7 49.8611C17.3697 49.9802 18.2133 50.0099 25.0116 50.0099C31.81 50.0099 32.6536 49.9802 35.3233 49.8611C37.983 49.742 39.7992 49.3152 41.3971 48.6999C43.0446 48.0647 44.434 47.2013 45.8235 45.8118C47.2129 44.4224 48.0664 43.023 48.7115 41.3855C49.3268 39.7975 49.7536 37.9813 49.8727 35.3116C49.9918 32.6419 50.0216 31.7983 50.0216 25C50.0216 18.2017 49.9918 17.3581 49.8727 14.6884C49.7536 12.0286 49.3268 10.2124 48.7115 8.61453C48.0763 6.96705 47.2129 5.57761 45.8235 4.18817C44.434 2.79873 43.0347 1.94522 41.3971 1.30012C39.8092 0.684796 37.993 0.258039 35.3233 0.138944C32.6436 0.0297737 31.7901 0 25.0017 0Z" fill="white"/>
<path d="M25.0017 12.1674C17.9155 12.1674 12.1593 17.9138 12.1593 25.0098C12.1593 32.1059 17.9056 37.8522 25.0017 37.8522C32.0978 37.8522 37.8441 32.1059 37.8441 25.0098C37.8441 17.9138 32.0978 12.1674 25.0017 12.1674ZM25.0017 33.3366C20.3967 33.3366 16.665 29.6049 16.665 24.9999C16.665 20.3949 20.3967 16.6633 25.0017 16.6633C29.6067 16.6633 33.3383 20.3949 33.3383 24.9999C33.3383 29.6049 29.6067 33.3366 25.0017 33.3366Z" fill="white"/>
<path d="M38.3503 14.6487C40.0056 14.6487 41.3475 13.3068 41.3475 11.6515C41.3475 9.99615 40.0056 8.65425 38.3503 8.65425C36.695 8.65425 35.3531 9.99615 35.3531 11.6515C35.3531 13.3068 36.695 14.6487 38.3503 14.6487Z" fill="white"/>
</svg>
