<svg width="51" height="50" viewBox="0 0 51 50" fill="none" xmlns="http://www.w3.org/2000/svg">
<path d="M42.6038 42.6034H35.1951V31.0011C35.1951 28.2344 35.1457 24.6728 31.3418 24.6728C27.4832 24.6728 26.8928 27.6872 26.8928 30.7996V42.6026H19.484V18.7435H26.5964V22.0041H26.696C27.4077 20.7871 28.4363 19.786 29.672 19.1073C30.9078 18.4286 32.3045 18.0978 33.7134 18.1501C41.2224 18.1501 42.6069 23.0892 42.6069 29.5147L42.6038 42.6034ZM11.1246 15.4822C10.2743 15.4823 9.44296 15.2303 8.73585 14.758C8.02874 14.2857 7.4776 13.6144 7.15205 12.8288C6.8265 12.0433 6.74119 11.1788 6.90693 10.3448C7.07267 9.51078 7.48202 8.74464 8.08319 8.14325C8.68436 7.54187 9.45036 7.13226 10.2843 6.96622C11.1183 6.80018 11.9827 6.88516 12.7684 7.21043C13.5541 7.5357 14.2256 8.08663 14.6982 8.79357C15.1707 9.50051 15.423 10.3317 15.4232 11.182C15.4233 11.7466 15.3122 12.3057 15.0962 12.8274C14.8802 13.349 14.5637 13.8231 14.1645 14.2224C13.7653 14.6217 13.2914 14.9384 12.7698 15.1546C12.2482 15.3708 11.6892 15.4821 11.1246 15.4822V15.4822ZM14.8289 42.6034H7.41253V18.7435H14.8289V42.6034ZM46.2973 0.00340658H3.68969C2.72261 -0.00750685 1.79072 0.365966 1.09887 1.04175C0.407018 1.71754 0.0118026 2.64036 0 3.60742V46.3918C0.0113986 47.3594 0.406382 48.2828 1.09821 48.9593C1.79004 49.6358 2.72213 50.01 3.68969 49.9997H46.2973C47.2668 50.0119 48.2015 49.6387 48.8961 48.9623C49.5906 48.2858 49.9883 47.3613 50.0017 46.3918V3.60434C49.9878 2.63536 49.5899 1.71149 48.8954 1.03572C48.2008 0.359944 47.2663 -0.0124613 46.2973 0.000318379" fill="white"/>
</svg>
