<svg width="748" height="140" viewBox="0 0 748 140" fill="none" xmlns="http://www.w3.org/2000/svg">
<g clip-path="url(#clip0)">
<path d="M0 103.633L10.2006 87.962C19.3664 94.6146 28.9757 98.0148 36.811 98.0148C43.7592 98.0148 46.8638 95.5016 46.8638 91.6579V91.3622C46.8638 86.188 38.7328 84.4139 29.4192 81.6051C17.5924 78.2048 4.28722 72.5871 4.28722 56.3252V56.0296C4.28722 38.8807 18.1837 29.2714 35.1848 29.2714C45.8289 29.2714 57.5079 32.8194 66.6737 39.0285L57.5079 55.586C49.2291 50.7075 40.8025 47.7508 34.7413 47.7508C28.9757 47.7508 25.8712 50.264 25.8712 53.5164V53.812C25.8712 58.5428 33.8543 60.7603 43.0201 63.8648C54.8469 67.8564 68.4477 73.4741 68.4477 88.849V89.1447C68.4477 107.92 54.4034 116.346 36.2196 116.346C24.3928 116.494 11.2355 112.503 0 103.633Z" fill="black"/>
<path d="M85.5967 30.6019H109.546V42.7244C115.312 34.8891 123.443 28.9757 135.861 28.9757C155.523 28.9757 174.298 44.3506 174.298 72.5871V72.8828C174.298 101.119 155.818 116.494 135.861 116.494C123.147 116.494 115.312 110.729 109.546 103.928V140.148H85.5967V30.6019ZM150.349 72.8828V72.5871C150.349 58.5428 140.887 49.2291 129.799 49.2291C118.712 49.2291 109.398 58.5428 109.398 72.5871V72.8828C109.398 86.9271 118.712 96.2408 129.799 96.2408C140.887 96.2408 150.349 87.075 150.349 72.8828Z" fill="black"/>
<path d="M187.751 73.1785V72.8828C187.751 48.6378 207.265 28.9757 233.58 28.9757C259.747 28.9757 279.113 48.3421 279.113 72.5871V72.8828C279.113 97.1278 259.599 116.79 233.284 116.79C207.117 116.79 187.751 97.4234 187.751 73.1785ZM255.459 73.1785V72.8828C255.459 60.4646 246.441 49.5248 233.284 49.5248C219.535 49.5248 211.404 60.0211 211.404 72.4393V72.735C211.404 85.1531 220.422 96.0929 233.58 96.0929C247.181 96.0929 255.459 85.5966 255.459 73.1785Z" fill="black"/>
<path d="M296.262 30.6019H320.211V42.5766C325.681 35.4805 332.777 28.9757 344.9 28.9757C362.935 28.9757 373.58 40.9504 373.58 60.3168V114.868H349.63V67.8564C349.63 56.4731 344.308 50.7075 335.142 50.7075C325.977 50.7075 320.211 56.4731 320.211 67.8564V114.868H296.262V30.6019Z" fill="black"/>
<path d="M563.992 103.633L574.192 87.962C583.358 94.6146 592.967 98.0148 600.803 98.0148C607.751 98.0148 610.855 95.5016 610.855 91.6579V91.3622C610.855 86.188 602.725 84.4139 593.411 81.6051C581.584 78.2048 568.279 72.5871 568.279 56.3252V56.0296C568.279 38.8807 582.175 29.2714 599.176 29.2714C609.821 29.2714 621.5 32.8194 630.665 39.0285L621.5 55.586C613.221 50.7075 604.794 47.7508 598.733 47.7508C592.967 47.7508 589.863 50.264 589.863 53.5164V53.812C589.863 58.5428 597.846 60.7603 607.012 63.8648C618.839 67.8564 632.439 73.4741 632.439 88.849V89.1447C632.439 107.92 618.395 116.346 600.211 116.346C588.385 116.494 575.079 112.503 563.992 103.633Z" fill="black"/>
<path d="M650.032 0H675.164V21.2883H650.032V0ZM650.623 30.6019H674.572V115.016H650.623V30.6019Z" fill="black"/>
<path d="M697.043 30.6019H720.993V47.603C725.871 35.924 733.706 28.3844 747.899 28.9757V53.9599H746.568C730.602 53.9599 720.845 63.5692 720.845 83.6748V114.868H696.896V30.6019H697.043Z" fill="black"/>
<path d="M512.249 83.527C508.258 79.5354 504.118 76.1352 499.683 73.4742C495.396 70.8131 490.665 68.8913 485.787 67.7086C480.908 66.5259 475.438 65.9346 469.525 65.9346C463.611 65.9346 458.289 66.5259 453.263 67.7086C448.384 68.8913 443.654 70.8131 439.366 73.4742C435.079 76.1352 430.94 79.3876 426.8 83.527C422.809 87.5185 418.817 92.3971 414.974 98.1627L398.12 86.9272C406.399 71.4045 416.452 59.8733 427.983 52.1859C439.514 44.4984 453.411 40.6547 469.525 40.6547C485.639 40.6547 499.535 44.4984 511.067 52.1859C522.598 59.8733 532.503 71.5523 540.929 86.9272L524.076 98.1627C520.232 92.5449 516.241 87.6663 512.249 83.527Z" fill="black"/>
</g>
<defs>
<clipPath id="clip0">
<rect width="747.899" height="140" fill="white"/>
</clipPath>
</defs>
</svg>
