<svg width="748" height="140" viewBox="0 0 748 140" fill="none" xmlns="http://www.w3.org/2000/svg">
<path d="M0 103.523L10.1899 87.8692C19.346 94.5147 28.9451 97.9114 36.7722 97.9114C43.7131 97.9114 46.8143 95.4008 46.8143 91.5612V91.2658C46.8143 86.097 38.692 84.3249 29.3882 81.519C17.5738 78.1223 4.2827 72.5105 4.2827 56.2658V55.9704C4.2827 38.8396 18.1646 29.2405 35.1477 29.2405C45.7806 29.2405 57.4473 32.7848 66.6034 38.9873L57.4473 55.5274C49.1772 50.654 40.7595 47.7004 34.7046 47.7004C28.9451 47.7004 25.8439 50.2109 25.8439 53.4599V53.7553C25.8439 58.481 33.8186 60.6962 42.9747 63.7974C54.789 67.7848 68.3755 73.3966 68.3755 88.7552V89.0506C68.3755 107.806 54.346 116.224 36.1814 116.224C24.3671 116.371 11.2236 112.384 0 103.523Z" fill="black"/>
<path d="M85.5063 30.5696H109.43V42.6793C115.19 34.8523 123.312 28.9451 135.717 28.9451C155.359 28.9451 174.114 44.3038 174.114 72.5105V72.8059C174.114 101.013 155.654 116.371 135.717 116.371C123.017 116.371 115.19 110.612 109.43 103.819V140H85.5063V30.5696ZM150.19 72.8059V72.5105C150.19 58.481 140.738 49.1772 129.662 49.1772C118.587 49.1772 109.283 58.481 109.283 72.5105V72.8059C109.283 86.8354 118.587 96.1392 129.662 96.1392C140.738 96.1392 150.19 86.9831 150.19 72.8059Z" fill="black"/>
<path d="M187.553 73.1012V72.8059C187.553 48.5865 207.046 28.9451 233.333 28.9451C259.473 28.9451 278.819 48.2911 278.819 72.5105V72.8059C278.819 97.0253 259.325 116.667 233.038 116.667C206.899 116.667 187.553 97.3207 187.553 73.1012ZM255.19 73.1012V72.8059C255.19 60.4008 246.181 49.4726 233.038 49.4726C219.304 49.4726 211.181 59.9578 211.181 72.3629V72.6582C211.181 85.0633 220.19 95.9915 233.333 95.9915C246.92 95.9915 255.19 85.5063 255.19 73.1012Z" fill="black"/>
<path d="M295.949 30.5696H319.873V42.5316C325.338 35.443 332.426 28.9451 344.536 28.9451C362.553 28.9451 373.186 40.9072 373.186 60.2531V114.747H349.262V67.7848C349.262 56.4135 343.945 50.654 334.789 50.654C325.633 50.654 319.873 56.4135 319.873 67.7848V114.747H295.949V30.5696Z" fill="black"/>
<path d="M563.396 103.523L573.586 87.8692C582.742 94.5147 592.342 97.9114 600.169 97.9114C607.11 97.9114 610.211 95.4008 610.211 91.5612V91.2658C610.211 86.097 602.088 84.3249 592.785 81.519C580.97 78.1223 567.679 72.5105 567.679 56.2658V55.9704C567.679 38.8396 581.561 29.2405 598.544 29.2405C609.177 29.2405 620.844 32.7848 630 38.9873L620.844 55.5274C612.574 50.654 604.156 47.7004 598.101 47.7004C592.342 47.7004 589.24 50.2109 589.24 53.4599V53.7553C589.24 58.481 597.215 60.6962 606.371 63.7974C618.186 67.7848 631.772 73.3966 631.772 88.7552V89.0506C631.772 107.806 617.743 116.224 599.578 116.224C587.764 116.371 574.472 112.384 563.396 103.523Z" fill="black"/>
<path d="M649.346 0H674.451V21.2658H649.346V0ZM649.937 30.5696H673.861V114.895H649.937V30.5696Z" fill="black"/>
<path d="M696.308 30.5697H720.232V47.5528C725.105 35.8861 732.932 28.3545 747.109 28.9452V53.903H745.78C729.831 53.903 720.084 63.5022 720.084 83.5865V114.747H696.16V30.5697H696.308Z" fill="black"/>
<path d="M478.481 38.8397C478.481 45.1899 479.662 49.7679 482.025 52.4262C484.388 55.2321 488.818 56.5612 495.021 56.5612C495.612 56.5612 496.498 56.5612 497.532 56.4135C498.565 56.2658 499.599 56.2658 500.633 56.2658C501.667 56.2658 502.7 56.1181 503.734 56.1181C504.768 56.1181 505.506 55.9705 506.097 55.9705C510.232 55.9705 513.924 56.5612 517.321 57.7426C520.717 58.924 523.671 60.9916 526.329 63.7975C528.987 66.6034 531.202 70.443 533.122 75.3165C535.042 80.1899 536.667 86.2447 537.996 93.6287L521.751 97.9114C520.57 93.6287 519.388 90.2321 518.059 87.5738C516.878 85.0633 515.401 82.9958 513.924 81.6667C512.447 80.3375 510.823 79.3038 508.903 78.8608C507.131 78.4177 504.916 78.27 502.405 78.27C500.781 78.27 498.861 78.4177 496.498 78.5654C494.135 78.7131 492.215 78.8608 490.443 78.8608C484.536 78.8608 479.958 77.384 476.561 74.5781C473.164 71.7721 470.654 67.4894 468.882 62.0253C467.11 67.4894 464.451 71.6245 461.202 74.5781C457.806 77.384 453.228 78.8608 447.321 78.8608C445.548 78.8608 443.629 78.7131 441.266 78.5654C438.903 78.4177 436.983 78.27 435.359 78.27C432.848 78.27 430.78 78.4177 428.861 78.8608C427.088 79.3038 425.316 80.1899 423.84 81.6667C422.363 82.9958 421.034 85.0633 419.705 87.5738C418.375 90.0844 417.194 93.6287 416.013 97.9114L399.768 93.6287C401.097 86.2447 402.721 80.0422 404.641 75.3165C406.561 70.443 408.924 66.6034 411.434 63.7975C414.093 60.9916 417.046 58.924 420.443 57.7426C423.84 56.5612 427.532 55.9705 431.667 55.9705C432.257 55.9705 433.143 55.9705 434.029 56.1181C435.063 56.1181 435.949 56.2658 437.131 56.2658C438.164 56.2658 439.198 56.4135 440.232 56.4135C441.266 56.4135 442.152 56.5612 442.742 56.5612C449.093 56.5612 453.375 55.2321 455.738 52.4262C458.101 49.6203 459.283 45.1899 459.283 38.8397H478.481V38.8397Z" fill="black"/>
</svg>
