<svg width="61" height="40" viewBox="0 0 61 40" fill="none" xmlns="http://www.w3.org/2000/svg">
<path d="M55.0017 0H5.00175C2.24409 0 0.00170898 1.99323 0.00170898 4.44448V35.5556C0.00170898 38.0068 2.24409 40 5.00175 40H55.0018C57.7593 40 60.0017 38.0068 60.0017 35.5555V4.44448C60.0017 1.99323 57.7593 0 55.0017 0ZM5.00175 2.22219H55.0018C55.186 2.22219 55.3483 2.28188 55.5212 2.31563C51.1924 5.83719 36.8388 17.5093 31.8158 21.5321C31.4227 21.8468 30.7892 22.2222 30.0018 22.2222C29.2144 22.2222 28.5809 21.8468 28.1866 21.531C23.1641 17.5089 8.80964 5.83615 4.48155 2.31583C4.65476 2.28208 4.81741 2.22219 5.00175 2.22219ZM2.50167 35.5555V4.44448C2.50167 4.22677 2.5755 4.02927 2.64159 3.83031C5.95472 6.52573 15.97 14.6699 22.4641 19.9192C15.9911 24.8616 5.97323 33.3041 2.63374 36.1347C2.57479 35.9457 2.50167 35.7609 2.50167 35.5555ZM55.0017 37.7778H5.00175C4.80206 37.7778 4.62452 37.7159 4.43808 37.6764C7.8889 34.7522 17.9705 26.2611 24.3297 21.4254C25.1587 22.0939 25.916 22.7033 26.5129 23.1815C27.5432 24.0083 28.7492 24.4445 30.0017 24.4445C31.2542 24.4445 32.4602 24.0082 33.4892 23.1825C34.0864 22.7042 34.8442 22.0942 35.6737 21.4254C42.0332 26.2606 52.1135 34.751 55.5653 37.6764C55.3789 37.7159 55.2016 37.7778 55.0017 37.7778ZM57.5017 35.5555C57.5017 35.7608 57.4286 35.9457 57.3698 36.1347C54.029 33.3026 44.0123 24.861 37.5394 19.9193C44.0337 14.67 54.0475 6.52656 57.3618 3.8301C57.4279 4.02906 57.5017 4.22667 57.5017 4.44437V35.5555V35.5555Z" fill="white"/>
</svg>
