<svg width="51" height="51" viewBox="0 0 51 51" fill="none" xmlns="http://www.w3.org/2000/svg">
<path fill-rule="evenodd" clip-rule="evenodd" d="M42.7088 7.30485C38.0179 2.59012 31.7635 0 25.1032 0C11.3887 0 0.216557 11.1721 0.204621 24.8866C0.204621 29.2791 1.35048 33.5522 3.52284 37.3359L0.00170898 50.2387L13.2029 46.7773C16.8434 48.7587 20.9375 49.809 25.1032 49.809H25.1151C38.8296 49.809 50.0017 38.6369 50.0136 24.9105C50.0017 18.2621 47.4116 12.0076 42.7088 7.30485ZM25.1032 45.5956C21.3791 45.5956 17.7386 44.593 14.5637 42.7071L13.8117 42.2535L5.98166 44.3065L8.07046 36.6675L7.58108 35.8797C5.50421 32.5853 4.41804 28.7778 4.41804 24.8747C4.41804 13.4877 13.7043 4.20148 25.1151 4.20148C30.6415 4.20148 35.8336 6.3619 39.7487 10.265C43.6517 14.18 45.8002 19.3722 45.8002 24.8985C45.7883 36.3213 36.5021 45.5956 25.1032 45.5956ZM36.4543 30.1026C35.8336 29.7923 32.778 28.2884 32.2051 28.0735C31.6322 27.8706 31.2144 27.7632 30.8086 28.3839C30.3908 29.0045 29.1972 30.413 28.8391 30.8188C28.4811 31.2366 28.111 31.2843 27.4904 30.974C26.8697 30.6636 24.8644 30.0072 22.4892 27.8826C20.6391 26.2354 19.3977 24.1943 19.0277 23.5736C18.6696 22.953 18.9919 22.6188 19.3023 22.3084C19.5768 22.0339 19.9229 21.5803 20.2333 21.2222C20.5436 20.8642 20.651 20.6016 20.8539 20.1838C21.0568 19.7661 20.9614 19.408 20.8062 19.0976C20.651 18.7873 19.4097 15.7197 18.8845 14.4784C18.3832 13.2609 17.8699 13.428 17.488 13.4161C17.1299 13.3922 16.7121 13.3922 16.2944 13.3922C15.8766 13.3922 15.2082 13.5474 14.6353 14.1681C14.0623 14.7887 12.4629 16.2927 12.4629 19.3602C12.4629 22.4278 14.695 25.376 15.0053 25.7937C15.3156 26.2115 19.3858 32.4899 25.6283 35.1874C27.1084 35.8319 28.2662 36.2139 29.1733 36.5004C30.6653 36.9778 32.0141 36.9062 33.0884 36.751C34.282 36.572 36.7647 35.2471 37.2898 33.7909C37.8031 32.3347 37.8031 31.0933 37.6479 30.8307C37.4927 30.5682 37.075 30.413 36.4543 30.1026Z" fill="white"/>
</svg>
